<svg xmlns="http://www.w3.org/2000/svg" xmlns:xlink="http://www.w3.org/1999/xlink" version="1.1" width="30" height="30" viewBox="0 0 1000 1000" xml:space="preserve">
<desc>Created with Fabric.js 3.5.0</desc>
<defs>
</defs>
<rect x="0" y="0" width="100%" height="100%" fill="#000000"/>
<g transform="matrix(29.4711 0 0 29.4711 367.2197 499.9998)" id="310699">
<path style="stroke: rgb(0,0,0); stroke-width: 1.4; stroke-dasharray: none; stroke-linecap: round; stroke-dashoffset: 0; stroke-linejoin: miter; stroke-miterlimit: 4; is-custom-font: none; font-file-url: none; fill: rgb(255,255,255); fill-rule: nonzero; opacity: 1;" vector-effect="non-scaling-stroke" transform=" translate(-12, -11.75)" d="M 4 21 V 18.5 C 4 15.4624 6.46243 13 9.5 13 H 14.5 C 17.5376 13 20 15.4624 20 18.5 V 21 M 8 21 V 18 M 16 21 V 18 M 16 6.5 C 16 8.70914 14.2091 10.5 12 10.5 C 9.79086 10.5 8 8.70914 8 6.5 C 8 4.29086 9.79086 2.5 12 2.5 C 14.2091 2.5 16 4.29086 16 6.5 Z" stroke-linecap="round"/>
</g>
<g transform="matrix(29.4711 0 0 29.4711 632.7807 500.0007)" id="864045">
<path style="stroke: rgb(0,0,0); stroke-width: 1.4; stroke-dasharray: none; stroke-linecap: round; stroke-dashoffset: 0; stroke-linejoin: miter; stroke-miterlimit: 4; is-custom-font: none; font-file-url: none; fill: rgb(255,255,255); fill-rule: nonzero; opacity: 1;" vector-effect="non-scaling-stroke" transform=" translate(-12, -11.75)" d="M 4 21 V 18.5 C 4 15.4624 6.46243 13 9.5 13 H 14.5 C 17.5376 13 20 15.4624 20 18.5 V 21 M 8 21 V 18 M 16 21 V 18 M 16 6.5 C 16 8.70914 14.2091 10.5 12 10.5 C 9.79086 10.5 8 8.70914 8 6.5 C 8 4.29086 9.79086 2.5 12 2.5 C 14.2091 2.5 16 4.29086 16 6.5 Z" stroke-linecap="round"/>
</g>
</svg>